<?xml version="1.0" standalone="no"?>
<!DOCTYPE svg PUBLIC "-//W3C//DTD SVG 20010904//EN"
 "http://www.w3.org/TR/2001/REC-SVG-20010904/DTD/svg10.dtd">
<svg version="1.0" xmlns="http://www.w3.org/2000/svg"
 width="140.000000pt" height="140.000000pt" viewBox="0 0 140.000000 140.000000"
 preserveAspectRatio="xMidYMid meet">
<metadata>
Created by potrace 1.11, written by Peter Selinger 2001-2013
</metadata>
<g transform="translate(0.000000,140.000000) scale(0.100000,-0.100000)"
fill="#000000" stroke="none">
<path d="M0 1393 c0 -5 6 -15 13 -22 10 -11 10 -13 0 -7 -9 5 -13 -3 -13 -28
0 -22 5 -36 13 -36 9 0 9 -2 -1 -9 -16 -9 -15 -179 0 -198 7 -9 7 -13 -1 -13
-15 0 -14 -77 2 -83 9 -4 9 -6 0 -6 -10 -1 -13 -28 -13 -101 0 -82 3 -100 15
-101 28 -3 33 -4 40 -11 4 -4 -7 -4 -24 -2 l-31 5 0 -180 c0 -150 3 -182 16
-195 14 -15 14 -16 0 -16 -25 0 -19 -35 9 -50 14 -7 23 -15 21 -17 -2 -3 -14
0 -25 7 -21 11 -21 10 -21 -159 l0 -170 700 -1 700 0 0 700 0 700 -668 -1
c-470 -1 -654 -5 -624 -12 23 -5 42 -13 42 -17 0 -5 -21 -1 -47 7 -66 21 -103
27 -103 16z m200 -33 c18 -12 2 -12 -25 0 -13 6 -15 9 -5 9 8 0 22 -4 30 -9z
m45 -10 c3 -6 -1 -7 -9 -4 -18 7 -21 14 -7 14 6 0 13 -4 16 -10z m152 -6 c-3
-3 -12 -4 -19 -1 -8 3 -5 6 6 6 11 1 17 -2 13 -5z m-182 -32 c-3 -3 -11 0 -18
7 -9 10 -8 11 6 5 10 -3 15 -9 12 -12z m62 -8 c-3 -3 -12 -4 -19 -1 -8 3 -5 6
6 6 11 1 17 -2 13 -5z m-188 -28 c10 -12 8 -13 -8 -9 -12 3 -18 9 -15 14 7 12
10 11 23 -5z m71 -22 c0 -2 -7 -4 -15 -4 -8 0 -15 4 -15 10 0 5 7 7 15 4 8 -4
15 -8 15 -10z m-30 -24 c0 -5 -8 -10 -17 -10 -15 0 -16 2 -3 10 19 12 20 12
20 0z m5 -90 c3 -6 -1 -7 -9 -4 -18 7 -21 14 -7 14 6 0 13 -4 16 -10z m-82
-17 c-7 -2 -19 -2 -25 0 -7 3 -2 5 12 5 14 0 19 -2 13 -5z m62 -13 c3 -5 1
-10 -4 -10 -6 0 -11 5 -11 10 0 6 2 10 4 10 3 0 8 -4 11 -10z m735 -7 c0 -5
18 -19 40 -33 22 -13 40 -29 40 -35 0 -14 54 -55 72 -55 7 0 21 -15 31 -33
l18 -32 -26 27 c-30 32 -66 44 -91 30 -14 -8 -12 -10 12 -16 39 -10 71 -32 85
-58 l12 -23 -24 22 c-37 33 -73 39 -98 14 -30 -30 -26 -59 8 -79 17 -9 32 -25
35 -34 3 -12 14 -18 34 -18 31 0 47 13 55 45 2 11 5 2 6 -19 1 -52 -21 -76
-71 -76 -110 0 -178 121 -112 199 24 29 24 31 6 31 -23 0 -34 -12 -52 -57 -11
-29 -10 -39 11 -90 12 -31 35 -68 50 -82 15 -14 27 -30 27 -36 1 -13 22 -19
22 -6 0 6 4 11 9 11 5 0 9 -20 9 -44 -1 -51 -26 -72 -76 -64 -24 3 -28 1 -24
-14 2 -10 11 -18 19 -18 8 0 29 -12 46 -26 l31 -26 -44 6 c-25 3 -57 8 -72 11
-23 4 -28 2 -28 -15 0 -11 -4 -20 -9 -20 -4 0 -6 11 -4 24 5 22 1 25 -38 30
-24 3 -64 5 -89 5 -39 -1 -150 5 -187 9 -6 1 -19 9 -27 18 -17 17 -141 23
-183 10 -19 -6 -22 -4 -22 21 1 15 -2 42 -6 58 -3 17 -7 45 -9 63 -1 19 -9 38
-17 43 -10 6 -10 9 -1 9 6 0 12 7 12 16 0 8 3 13 8 10 4 -2 7 12 7 32 0 42 4
49 63 109 42 43 78 64 115 68 10 1 30 14 43 28 14 15 37 29 52 32 15 3 48 10
73 16 25 5 57 8 70 4 13 -3 51 -1 84 4 80 12 105 12 105 4z m-670 -12 c0 -4
-11 -6 -25 -3 -14 2 -25 6 -25 8 0 2 11 4 25 4 14 0 25 -4 25 -9z m393 2 c-7
-2 -19 -2 -25 0 -7 3 -2 5 12 5 14 0 19 -2 13 -5z m-483 -23 c13 -8 13 -10 -2
-10 -9 0 -20 5 -23 10 -8 13 5 13 25 0z m157 -6 c-3 -3 -12 -4 -19 -1 -8 3 -5
6 6 6 11 1 17 -2 13 -5z m90 -20 c-3 -3 -12 -4 -19 -1 -8 3 -5 6 6 6 11 1 17
-2 13 -5z m-180 -140 c-3 -3 -12 -4 -19 -1 -8 3 -5 6 6 6 11 1 17 -2 13 -5z
m-60 -30 c-3 -3 -12 -4 -19 -1 -8 3 -5 6 6 6 11 1 17 -2 13 -5z m58 -74 c3 -5
2 -10 -4 -10 -5 0 -13 5 -16 10 -3 6 -2 10 4 10 5 0 13 -4 16 -10z m-110 -88
c-3 -3 -11 0 -18 7 -9 10 -8 11 6 5 10 -3 15 -9 12 -12z m21 -130 c-10 -2 -22
0 -28 6 -6 6 0 7 19 4 21 -5 23 -7 9 -10z m341 -35 c6 -4 9 -16 6 -27 -6 -24
-28 -12 -36 19 -5 19 7 22 30 8z m173 -58 c0 -5 -9 -9 -20 -9 -19 0 -26 11
-14 23 8 8 34 -3 34 -14z m140 0 c0 -5 -7 -9 -15 -9 -15 0 -20 12 -9 23 8 8
24 -1 24 -14z m-242 0 c-2 -6 -7 -10 -11 -10 -4 1 -17 1 -29 2 -22 0 -22 1 -3
9 28 12 47 12 43 -1z m-93 -9 c3 -5 1 -10 -4 -10 -6 0 -11 5 -11 10 0 6 2 10
4 10 3 0 8 -4 11 -10z m-315 -26 c0 -2 -9 0 -20 6 -11 6 -20 13 -20 16 0 2 9
0 20 -6 11 -6 20 -13 20 -16z m200 -4 c0 -5 -2 -10 -4 -10 -3 0 -8 5 -11 10
-3 6 -1 10 4 10 6 0 11 -4 11 -10z m-100 -20 c0 -5 -2 -10 -4 -10 -3 0 -8 5
-11 10 -3 6 -1 10 4 10 6 0 11 -4 11 -10z m155 -42 c4 -13 8 -27 9 -31 0 -4 7
-11 14 -16 7 -4 19 -19 26 -33 12 -23 12 -25 -5 -21 -16 4 -44 56 -41 75 1 4
-7 10 -18 13 -23 7 -27 35 -6 35 7 0 17 -10 21 -22z m-220 -79 c11 -16 1 -19
-13 -3 -7 8 -8 14 -3 14 5 0 13 -5 16 -11z m65 -19 c0 -5 -2 -10 -4 -10 -3 0
-8 5 -11 10 -3 6 -1 10 4 10 6 0 11 -4 11 -10z m260 -40 c0 -5 -7 -7 -15 -4
-8 4 -12 10 -9 15 6 11 24 2 24 -11z m80 -50 c0 -5 -2 -10 -4 -10 -3 0 -8 5
-11 10 -3 6 -1 10 4 10 6 0 11 -4 11 -10z m285 -10 c3 -5 1 -10 -4 -10 -6 0
-11 5 -11 10 0 6 2 10 4 10 3 0 8 -4 11 -10z"/>
<path d="M748 1032 c-27 -2 -48 -8 -48 -13 0 -6 12 -8 28 -4 26 5 87 -1 177
-19 l30 -6 -32 15 c-45 21 -100 30 -155 27z"/>
<path d="M526 1021 c-5 -8 124 -3 133 5 2 2 -25 4 -62 4 -36 0 -68 -4 -71 -9z"/>
<path d="M533 942 c33 -37 14 -114 -41 -166 -57 -53 -171 -45 -172 13 -1 14
-2 14 -9 1 -16 -26 0 -70 29 -85 38 -20 120 1 161 41 28 26 30 27 42 9 10 -12
16 -15 21 -6 4 6 0 14 -8 17 -18 7 -18 54 1 54 21 0 34 38 27 78 -7 37 -27 61
-53 62 -11 0 -11 -4 2 -18z"/>
<path d="M341 908 c-14 -23 -14 -23 8 -4 22 20 25 26 13 26 -4 0 -13 -10 -21
-22z"/>
<path d="M399 917 c-44 -20 -59 -38 -59 -72 0 -35 24 -66 33 -43 4 10 6 10 6
1 2 -24 49 -13 80 18 33 32 47 69 37 94 -6 18 -59 19 -97 2z m30 -52 c1 -2 0
-8 -3 -13 -4 -7 -18 -6 -41 1 -19 5 -32 14 -30 18 5 7 65 2 74 -6z"/>
<path d="M830 730 c-8 -5 -12 -11 -10 -14 3 -2 14 2 24 10 22 15 10 19 -14 4z"/>
</g>
</svg>
